<svg xmlns="http://www.w3.org/2000/svg" width="120.885" height="112.566" viewBox="-72 -72 90.664 84.425"><g stroke="#000" stroke-miterlimit="10" stroke-width=".4"><g stroke="none"><g stroke="none"><text x="42.883" y="-97.39" font-family="cmmi10" font-size="10" transform="matrix(1 0 0 -1 -87.623 -68.61)">X</text><text x="54.174" y="-97.39" font-family="cmsy10" font-size="10" transform="matrix(1 0 0 -1 -87.623 -68.61)">£</text><text x="64.174" y="-97.39" font-family="cmmi10" font-size="10" transform="matrix(1 0 0 -1 -87.623 -68.61)">Y</text><text x="72.202" y="-101.019" font-family="cmmi7" font-size="7" transform="matrix(1 0 0 -1 -87.623 -68.61)">X</text></g><text x="97.968" y="-97.39" stroke="none" font-family="cmmi10" font-size="10" transform="matrix(1 0 0 -1 -73.176 -68.61)">Y</text><g stroke="none" font-size="10"><text x="42.883" y="-64.404" font-family="cmmi10" transform="matrix(1 0 0 -1 -84.343 -68.61)">X</text><text x="54.174" y="-64.404" font-family="cmsy10" transform="matrix(1 0 0 -1 -84.343 -68.61)">£</text><text x="64.174" y="-64.404" font-family="cmmi10" transform="matrix(1 0 0 -1 -84.343 -68.61)">X</text></g><text x="42.883" y="-31.418" stroke="none" font-family="cmmi10" font-size="10" transform="matrix(1 0 0 -1 -73.697 -68.61)">X</text><text x="97.968" y="-31.418" stroke="none" font-family="cmmi10" font-size="10" transform="matrix(1 0 0 -1 -73.176 -68.61)">Y</text></g><path fill="none" d="M-3.314 31.28h23.2"/><path fill="none" stroke-linecap="round" stroke-linejoin="round" d="M18.006 33.68c.38-1.44 1.227-2.12 2.08-2.4-.853-.28-1.7-.96-2.08-2.4"/><text x="20.116" y="-31.418" stroke="none" font-family="cmmi7" font-size="7" transform="matrix(1 0 0 -1 -13.52 2.215)">&quot;</text><path fill="none" d="M28.806 24.92V-26.1"/><path fill="none" stroke-linecap="round" stroke-linejoin="round" d="M31.206-24.22c-1.44-.38-2.12-1.226-2.4-2.08-.28.854-.96 1.7-2.4 2.08"/><text x="20.116" y="-31.418" stroke="none" font-family="cmmi7" font-size="7" transform="matrix(1 0 0 -1 11.042 -33.714)">®</text><path fill="none" d="M-26.28 6.487v17.2"/><path fill="none" stroke-linecap="round" stroke-linejoin="round" d="M-28.68 21.807c1.44.38 2.12 1.227 2.4 2.08.28-.853.96-1.7 2.4-2.08"/><g stroke="none"><text x="20.116" y="-31.418" font-family="cmr7" font-size="7" transform="matrix(1 0 0 -1 -70.117 -17.881)">1</text><text x="24.102" y="-30.412" font-family="cmmi5" font-size="5" transform="matrix(1 0 0 -1 -70.117 -17.881)">X</text><text x="30.55" y="-31.418" font-family="cmsy7" font-size="7" transform="matrix(1 0 0 -1 -70.117 -17.881)">£</text><text x="36.8" y="-31.418" font-family="cmmi7" font-size="7" transform="matrix(1 0 0 -1 -70.117 -17.881)">f</text></g><path fill="none" d="m-12.605 6.487 32.548 19.49"/><path fill="none" stroke-linecap="round" stroke-linejoin="round" stroke-width=".399992" d="M17.097 27.07c1.066-1.04 2.142-1.19 3.018-.991-.588-.679-.966-1.697-.552-3.128"/><g stroke="none" font-size="7"><text x="21.757" y="-33.265" font-family="cmr7" transform="matrix(1 0 0 -1 -13.923 -24.145)">^</text><text x="20.116" y="-31.418" font-family="cmmi7" transform="matrix(1 0 0 -1 -13.923 -24.145)">f</text></g><path fill="none" d="M-26.28-26.5v17.2"/><path fill="none" stroke-linecap="round" stroke-linejoin="round" d="M-28.68-11.179c1.44.38 2.12 1.227 2.4 2.08.28-.853.96-1.7 2.4-2.08"/><text x="20.116" y="-31.418" stroke="none" font-family="cmr7" font-size="7" transform="matrix(1 0 0 -1 -55.318 -51.509)">¢</text><path fill="none" d="M-17.24-34.692h37.126"/><path fill="none" stroke-linecap="round" stroke-linejoin="round" d="M18.006-32.292c.38-1.44 1.227-2.12 2.08-2.4-.853-.28-1.7-.96-2.08-2.4"/><text x="20.116" y="-31.418" stroke="none" font-family="cmmi7" font-size="7" transform="matrix(1 0 0 -1 -20.67 -71.477)">g</text></g></svg>